<?xml version="1.0" encoding="UTF-8" standalone="no"?>
<svg
   xmlns:dc="http://purl.org/dc/elements/1.1/"
   xmlns:cc="http://creativecommons.org/ns#"
   xmlns:rdf="http://www.w3.org/1999/02/22-rdf-syntax-ns#"
   xmlns:svg="http://www.w3.org/2000/svg"
   xmlns="http://www.w3.org/2000/svg"
   version="1.1"
   id="svg8926"
   viewBox="0 0 12.169658 12.109933"
   height="3.4176922mm"
   width="3.4345479mm">
  <defs
     id="defs8928" />
  <metadata
     id="metadata8931">
    <rdf:RDF>
      <cc:Work
         rdf:about="">
        <dc:format>image/svg+xml</dc:format>
        <dc:type
           rdf:resource="http://purl.org/dc/dcmitype/StillImage" />
        <dc:title></dc:title>
      </cc:Work>
    </rdf:RDF>
  </metadata>
  <g
     transform="translate(263.22769,-74.87867)"
     id="layer1">
    <g
       transform="translate(46.956707,-483.14691)"
       id="g4745"
       style="display:inline">
      <path
         style="opacity:1;fill:#e9e9e9;fill-opacity:1;stroke:none;stroke-width:1;stroke-miterlimit:0;stroke-dasharray:none;stroke-opacity:1"
         d="m -302.17058,564.22741 c -1.15006,-0.26242 -1.46768,-0.47425 -1.46768,-0.97882 0,-1.22798 -1.18595,-3.58873 -2.25457,-4.48791 -0.221,-0.18596 -0.36663,-0.37329 -0.32362,-0.4163 0.17611,-0.17611 0.84496,-0.0577 1.50904,0.26724 1.97102,0.96433 3.45038,3.32869 3.29701,5.26938 l -0.0404,0.51066 -0.71982,-0.16425 z"
         id="path4733" />
      <path
         style="opacity:1;fill:#e9e9e9;fill-opacity:1;stroke:none;stroke-width:1;stroke-miterlimit:0;stroke-dasharray:none;stroke-opacity:1"
         d="m -300.26326,563.75547 c 0,-1.66616 -0.76505,-3.3574 -2.14647,-4.745 l -0.98049,-0.98489 0.53223,0.0806 c 1.48822,0.22529 3.40598,1.6653 4.13394,3.1041 0.36329,0.71803 0.70673,1.83456 0.70931,2.306 0.002,0.30289 -0.60134,0.58595 -1.65477,0.77676 l -0.59375,0.10755 0,-0.6451 z"
         id="path4735" />
      <path
         style="opacity:1;fill:#e9e9e9;fill-opacity:1;stroke:none;stroke-width:1;stroke-miterlimit:0;stroke-dasharray:none;stroke-opacity:1"
         d="m -303.38826,567.22155 c -0.58957,-0.0986 -1.81259,-0.54445 -2.1001,-0.76562 l -0.28761,-0.22124 0.80818,-0.77606 0.80818,-0.77605 0.54193,0.23117 c 1.33591,0.56987 3.41736,0.72068 4.66692,0.33814 0.79395,-0.24305 0.8125,-0.24198 0.8125,0.0469 0,0.52415 -1.77299,1.59426 -3.0999,1.87096 -0.64788,0.13511 -1.52554,0.15627 -2.1501,0.0518 z"
         id="path4737" />
      <path
         style="opacity:1;fill:#e9e9e9;fill-opacity:1;stroke:none;stroke-width:1;stroke-miterlimit:0;stroke-dasharray:none;stroke-opacity:1"
         d="m -305.32576,570.05362 c -0.275,-0.0664 -0.74296,-0.21124 -1.03993,-0.32189 l -0.53993,-0.20119 0.0798,-0.51759 c 0.0901,-0.5842 0.42813,-1.7051 0.51428,-1.7051 0.0311,0 0.33685,0.14201 0.67937,0.31558 1.564,0.79254 3.71765,0.95109 5.37207,0.3955 0.51389,-0.17258 0.95189,-0.29658 0.97331,-0.27556 0.0214,0.021 -0.13572,0.23717 -0.34921,0.48032 -0.52763,0.60094 -1.60237,1.29559 -2.47115,1.59722 -0.82999,0.28815 -2.49141,0.40828 -3.2186,0.23271 z"
         id="path4739" />
      <path
         style="opacity:1;fill:#e9e9e9;fill-opacity:1;stroke:none;stroke-width:1;stroke-miterlimit:0;stroke-dasharray:none;stroke-opacity:1"
         d="m -308.20076,568.55772 c -0.21969,-0.2437 -0.24899,-0.44614 -0.24169,-1.66984 0.01,-1.66037 0.25277,-2.41735 1.1604,-3.61675 0.50157,-0.66282 1.74629,-1.71328 2.0301,-1.71328 0.1175,0 0.44774,1.02413 0.54415,1.6875 0.0709,0.48817 0.0558,0.51331 -0.64078,1.0625 -1.12894,0.89009 -1.98859,2.2729 -2.43687,3.91984 l -0.16531,0.60734 -0.25,-0.27731 z"
         id="path4741" />
      <path
         style="opacity:1;fill:#e9e9e9;fill-opacity:1;stroke:none;stroke-width:1;stroke-miterlimit:0;stroke-dasharray:none;stroke-opacity:1"
         d="m -309.9447,565.80785 c -0.65064,-2.26628 0.0479,-4.70768 1.79689,-6.28017 0.76138,-0.68455 0.75615,-0.68549 1.73215,0.31003 l 0.6601,0.67329 -0.69505,0.47869 c -1.69602,1.1681 -2.66766,2.74668 -3.15799,5.13066 l -0.10284,0.5 -0.23326,-0.8125 z"
         id="path4743" />
    </g>
  </g>
</svg>
