<?xml version="1.0" encoding="UTF-8" standalone="no"?>
<svg
   xmlns:dc="http://purl.org/dc/elements/1.1/"
   xmlns:cc="http://creativecommons.org/ns#"
   xmlns:rdf="http://www.w3.org/1999/02/22-rdf-syntax-ns#"
   xmlns:svg="http://www.w3.org/2000/svg"
   xmlns="http://www.w3.org/2000/svg"
   version="1.1"
   id="svg6959"
   viewBox="0 0 26.63186 26.63186"
   height="7.5161028mm"
   width="7.5161028mm">
  <defs
     id="defs6961" />
  <metadata
     id="metadata6964">
    <rdf:RDF>
      <cc:Work
         rdf:about="">
        <dc:format>image/svg+xml</dc:format>
        <dc:type
           rdf:resource="http://purl.org/dc/dcmitype/StillImage" />
        <dc:title></dc:title>
      </cc:Work>
    </rdf:RDF>
  </metadata>
  <g
     transform="translate(-52.39836,-56.189127)"
     id="layer1">
    <g
       id="g5869"
       transform="matrix(0.12129043,0,0,0.12129043,52.39836,56.189127)"
       style="display:inline;fill:#e2e2e2;fill-opacity:1">
      <path
         id="path5871"
         d="M 109.78,0 C 49.247,0 0,49.25 0,109.787 c 0.001,29.774 11.921,56.813 31.232,76.609 0.14,0.157 0.286,0.305 0.438,0.448 19.919,20.19 47.578,32.727 78.112,32.727 l 0.001,0 c 29.325,-0.002 56.896,-11.422 77.633,-32.158 20.737,-20.736 32.157,-48.305 32.155,-77.626 C 219.571,49.251 170.32,0.001 109.78,0 Z M 43.562,177.528 C 33.023,136.494 51.074,93.346 87.953,72.053 c 1.691,-0.977 3.419,-1.896 5.167,-2.769 5.339,11.27 8.483,23.613 9.039,36.36 -14.766,9.359 -26.874,22.026 -35.586,36.708 -0.08,0.124 -0.153,0.249 -0.225,0.376 -7.533,12.811 -12.48,27.138 -14.355,42.131 -2.953,-2.279 -5.768,-4.727 -8.431,-7.331 z M 84.127,18.531 c 40.868,11.352 69.262,48.588 69.262,91.212 0,1.965 -0.067,3.932 -0.188,5.891 -12.441,-1.008 -24.715,-4.46 -36.044,-10.358 -0.713,-17.346 -5.562,-34.052 -13.811,-48.862 -0.185,-0.41 -0.398,-0.799 -0.644,-1.159 -7.31,-12.76 -17.168,-24.056 -29.09,-33.076 3.41,-1.413 6.919,-2.636 10.515,-3.648 z m 25.851,99.918 c 15.584,8.165 32.724,12.326 49.902,12.486 0.036,0.001 0.072,0.007 0.108,0.007 0.03,0 0.06,-0.004 0.089,-0.004 0.278,0.002 0.556,0.013 0.833,0.013 14.591,0 29.181,-2.899 42.844,-8.673 -0.48,3.679 -1.171,7.309 -2.07,10.873 -30.266,29.75 -76.733,35.734 -113.664,14.412 -1.697,-0.979 -3.364,-2.02 -5.001,-3.102 7.087,-10.259 16.201,-19.154 26.959,-26.012 z m 94.487,-13.057 c -11.405,5.891 -23.75,9.315 -36.249,10.274 0.105,-1.972 0.173,-3.949 0.173,-5.923 0,-39.686 -21.258,-75.336 -54.184,-94.637 48.764,2.253 88.023,41.52 90.26,90.286 z M 58.645,30.011 c 10.794,6.934 19.925,15.91 26.999,26.252 -1.753,0.892 -3.49,1.817 -5.191,2.799 C 46.093,78.901 25.848,115.125 25.587,153.279 18.826,140.246 15,125.455 15,109.786 15,76.341 32.411,46.888 58.645,30.011 Z m 118.164,146.795 c -17.904,17.903 -41.708,27.763 -67.027,27.765 -15.683,0 -30.485,-3.833 -43.528,-10.605 0.604,-12.818 3.811,-25.217 9.229,-36.519 1.655,1.077 3.332,2.123 5.039,3.107 17.153,9.903 36.079,14.722 54.867,14.722 18.866,0 37.588,-4.864 54.216,-14.323 -3.646,5.663 -7.921,10.978 -12.796,15.853 z"
         style="fill:#e2e2e2;fill-opacity:1" />
      <g
         id="g5873"
         style="fill:#e2e2e2;fill-opacity:1" />
      <g
         id="g5875"
         style="fill:#e2e2e2;fill-opacity:1" />
      <g
         id="g5877"
         style="fill:#e2e2e2;fill-opacity:1" />
      <g
         id="g5879"
         style="fill:#e2e2e2;fill-opacity:1" />
      <g
         id="g5881"
         style="fill:#e2e2e2;fill-opacity:1" />
      <g
         id="g5883"
         style="fill:#e2e2e2;fill-opacity:1" />
      <g
         id="g5885"
         style="fill:#e2e2e2;fill-opacity:1" />
      <g
         id="g5887"
         style="fill:#e2e2e2;fill-opacity:1" />
      <g
         id="g5889"
         style="fill:#e2e2e2;fill-opacity:1" />
      <g
         id="g5891"
         style="fill:#e2e2e2;fill-opacity:1" />
      <g
         id="g5893"
         style="fill:#e2e2e2;fill-opacity:1" />
      <g
         id="g5895"
         style="fill:#e2e2e2;fill-opacity:1" />
      <g
         id="g5897"
         style="fill:#e2e2e2;fill-opacity:1" />
      <g
         id="g5899"
         style="fill:#e2e2e2;fill-opacity:1" />
      <g
         id="g5901"
         style="fill:#e2e2e2;fill-opacity:1" />
    </g>
  </g>
</svg>
